<mxfile host="app.diagrams.net" modified="2023-05-17T18:00:46.350Z" agent="Mozilla/5.0 (X11; Linux x86_64; rv:109.0) Gecko/20100101 Firefox/113.0" etag="U9oOFahM6hVxJQBFBOeK" version="21.2.8">
  <diagram name="Page-1" id="ISQf4cOc-7cX-1sg7a2f">
    <mxGraphModel dx="661" dy="673" grid="1" gridSize="10" guides="1" tooltips="1" connect="1" arrows="1" fold="1" page="1" pageScale="1" pageWidth="850" pageHeight="1100" math="0" shadow="0">
      <root>
        <mxCell id="0" />
        <mxCell id="1" parent="0" />
        <mxCell id="33xvhwjEaHY4Uy679u2_-1" value="" style="ellipse;html=1;shape=startState;fillColor=#000000;strokeColor=#ff0000;" vertex="1" parent="1">
          <mxGeometry x="310" y="130" width="30" height="30" as="geometry" />
        </mxCell>
        <mxCell id="33xvhwjEaHY4Uy679u2_-6" value="&lt;font style=&quot;font-size: 8px;&quot;&gt;User Requests Bookings from Booking&lt;/font&gt;" style="text;html=1;strokeColor=none;fillColor=none;align=center;verticalAlign=middle;whiteSpace=wrap;rounded=0;" vertex="1" parent="1">
          <mxGeometry x="260" y="170" width="60" height="40" as="geometry" />
        </mxCell>
        <mxCell id="33xvhwjEaHY4Uy679u2_-10" value="" style="edgeStyle=orthogonalEdgeStyle;html=1;verticalAlign=bottom;endArrow=open;endSize=8;strokeColor=#000000;rounded=0;fillColor=#000000;" edge="1" parent="1" source="33xvhwjEaHY4Uy679u2_-1" target="33xvhwjEaHY4Uy679u2_-11">
          <mxGeometry relative="1" as="geometry">
            <mxPoint x="325" y="220" as="targetPoint" />
            <mxPoint x="325" y="160" as="sourcePoint" />
          </mxGeometry>
        </mxCell>
        <mxCell id="33xvhwjEaHY4Uy679u2_-22" style="edgeStyle=orthogonalEdgeStyle;rounded=0;orthogonalLoop=1;jettySize=auto;html=1;exitX=1;exitY=0.5;exitDx=0;exitDy=0;" edge="1" parent="1" source="33xvhwjEaHY4Uy679u2_-11">
          <mxGeometry relative="1" as="geometry">
            <mxPoint x="390" y="350" as="targetPoint" />
          </mxGeometry>
        </mxCell>
        <mxCell id="33xvhwjEaHY4Uy679u2_-11" value="&lt;div&gt;Timezone Class waiting for data from &lt;br&gt;&lt;/div&gt;&lt;div&gt;database.&lt;br&gt;&lt;/div&gt;" style="rounded=1;whiteSpace=wrap;html=1;" vertex="1" parent="1">
          <mxGeometry x="200" y="320" width="120" height="60" as="geometry" />
        </mxCell>
        <mxCell id="33xvhwjEaHY4Uy679u2_-19" style="edgeStyle=orthogonalEdgeStyle;rounded=0;orthogonalLoop=1;jettySize=auto;html=1;entryX=0.5;entryY=1;entryDx=0;entryDy=0;" edge="1" parent="1" source="33xvhwjEaHY4Uy679u2_-14" target="33xvhwjEaHY4Uy679u2_-20">
          <mxGeometry relative="1" as="geometry">
            <mxPoint x="540" y="200" as="targetPoint" />
          </mxGeometry>
        </mxCell>
        <mxCell id="33xvhwjEaHY4Uy679u2_-14" value="Convert Bookings to users Timezone" style="rounded=1;whiteSpace=wrap;html=1;" vertex="1" parent="1">
          <mxGeometry x="550" y="320" width="120" height="60" as="geometry" />
        </mxCell>
        <mxCell id="33xvhwjEaHY4Uy679u2_-15" value="bookings received" style="text;html=1;align=center;verticalAlign=middle;resizable=0;points=[];autosize=1;strokeColor=none;fillColor=none;" vertex="1" parent="1">
          <mxGeometry x="390" y="345" width="120" height="30" as="geometry" />
        </mxCell>
        <mxCell id="33xvhwjEaHY4Uy679u2_-17" value="no bookings" style="text;whiteSpace=wrap;html=1;" vertex="1" parent="1">
          <mxGeometry x="400" y="310" width="100" height="40" as="geometry" />
        </mxCell>
        <mxCell id="33xvhwjEaHY4Uy679u2_-20" value="" style="ellipse;html=1;shape=endState;fillColor=#000000;strokeColor=#ff0000;" vertex="1" parent="1">
          <mxGeometry x="595" y="130" width="30" height="30" as="geometry" />
        </mxCell>
        <mxCell id="33xvhwjEaHY4Uy679u2_-23" value="" style="edgeStyle=orthogonalEdgeStyle;rounded=0;orthogonalLoop=1;jettySize=auto;html=1;entryX=-0.023;entryY=0.664;entryDx=0;entryDy=0;entryPerimeter=0;exitX=0.196;exitY=0.494;exitDx=0;exitDy=0;exitPerimeter=0;" edge="1" parent="1" source="33xvhwjEaHY4Uy679u2_-21" target="33xvhwjEaHY4Uy679u2_-20">
          <mxGeometry relative="1" as="geometry">
            <mxPoint x="450" y="320" as="targetPoint" />
            <Array as="points">
              <mxPoint x="394" y="330" />
              <mxPoint x="477" y="330" />
              <mxPoint x="477" y="150" />
            </Array>
          </mxGeometry>
        </mxCell>
        <mxCell id="33xvhwjEaHY4Uy679u2_-24" style="edgeStyle=orthogonalEdgeStyle;rounded=0;orthogonalLoop=1;jettySize=auto;html=1;exitX=0.626;exitY=0.494;exitDx=0;exitDy=0;exitPerimeter=0;entryX=0;entryY=0.5;entryDx=0;entryDy=0;" edge="1" parent="1" source="33xvhwjEaHY4Uy679u2_-21" target="33xvhwjEaHY4Uy679u2_-14">
          <mxGeometry relative="1" as="geometry">
            <mxPoint x="540" y="372" as="targetPoint" />
            <Array as="points">
              <mxPoint x="450" y="351" />
              <mxPoint x="500" y="350" />
            </Array>
          </mxGeometry>
        </mxCell>
        <mxCell id="33xvhwjEaHY4Uy679u2_-21" value="" style="line;strokeWidth=1;fillColor=none;align=left;verticalAlign=middle;spacingTop=-1;spacingLeft=3;spacingRight=3;rotatable=0;labelPosition=right;points=[];portConstraint=eastwest;strokeColor=inherit;direction=south;" vertex="1" parent="1">
          <mxGeometry x="390" y="310" width="8" height="65" as="geometry" />
        </mxCell>
        <mxCell id="33xvhwjEaHY4Uy679u2_-27" value="Events Displayed on Calendar" style="text;html=1;align=center;verticalAlign=middle;resizable=0;points=[];autosize=1;strokeColor=none;fillColor=none;" vertex="1" parent="1">
          <mxGeometry x="520" y="100" width="180" height="30" as="geometry" />
        </mxCell>
        <mxCell id="33xvhwjEaHY4Uy679u2_-28" value="start" style="text;html=1;align=center;verticalAlign=middle;resizable=0;points=[];autosize=1;strokeColor=none;fillColor=none;" vertex="1" parent="1">
          <mxGeometry x="300" y="100" width="50" height="30" as="geometry" />
        </mxCell>
      </root>
    </mxGraphModel>
  </diagram>
</mxfile>
